# AST/ASF file generated using VICON BodyLanguage
# -----------------------------------------------
:version 1.10
:name VICON
:units
  mass 1.0
  length 0.45
  angle deg
:documentation
   .ast/.asf automatically generated from VICON data using
   VICON BodyBuilder and BodyLanguage model FoxedUp or BRILLIANT.MOD
:root
   order TX TY TZ RX RY RZ
   axis XYZ
   position 0 0 0  
   orientation 0 0 0 
:bonedata
  begin
     id 1 
     name lhipjoint
     direction 0.560651 -0.75055 0.34978 
     length 2.44936 
     axis 0 0 0  XYZ
  end
  begin
     id 2 
     name lfemur
     direction 0.34202 -0.939693 0  
     length 7.42139  
     axis 0 0 20  XYZ
    dof rx ry rz
    limits (-160.0 20.0)
           (-70.0 70.0)
           (-60.0 70.0)
  end
  begin
     id 3 
     name ltibia
     direction 0.34202 -0.939693 0   
     length 7.75674   
     axis 0 0 20   XYZ
    dof rx
    limits (-10.0 170.0)
  end
  begin
     id 4 
     name lfoot
     direction 0.0925879 -0.254383 0.962661   
     length 2.38688   
     axis -90 7.62852e-016 20   XYZ
    dof rx rz
    limits (-45.0 90.0)
           (-70.0 20.0)
  end
  begin
     id 5 
     name ltoes
     direction 1.53567e-011 -4.21973e-011 1   
     length 1.19228   
     axis -90 7.62852e-016 20   XYZ
    dof rx
    limits (-90.0 20.0)
  end
  begin
     id 6 
     name rhipjoint
     direction -0.540087 -0.762838 0.355506   
     length 2.4099  
     axis 0 0 0  XYZ 
  end
  begin
     id 7 
     name rfemur
     direction -0.34202 -0.939693 0   
     length 7.70794   
     axis 0 0 -20   XYZ
    dof rx ry rz
    limits (-160.0 20.0)
           (-70.0 70.0)
           (-70.0 60.0)
  end
  begin
     id 8 
     name rtibia
     direction -0.34202 -0.939693 0   
     length 7.66106   
     axis 0 0 -20   XYZ
    dof rx
    limits (-10.0 170.0)
 end
 begin
     id 9 
     name rfoot
     direction -0.0830975 -0.228308 0.970036   
     length 2.4989  
     axis -90 -7.62852e-016 -20   XYZ
    dof rx rz
    limits (-45.0 90.0)
           (-20.0 70.0)
  end
  begin
     id 10 
     name rtoes
     direction -1.53517e-011 -4.21842e-011 1   
     length 1.2498   
     axis -90 -7.62852e-016 -20   XYZ
    dof rx
    limits (-90.0 20.0)
  end
  begin
     id 11 
     name lowerback
     direction 0.0266356 0.99402 -0.105896   
     length 2.1545   
     axis 0 0 0   XYZ
    dof rx ry rz
    limits (-20.0 45.0)
           (-30.0 30.0)
           (-30.0 30.0)
  end
  begin
     id 12 
     name upperback
     direction 0.0130547 0.999192 0.0380027   
     length 2.1434   
     axis 0 0 0   XYZ
    dof rx ry rz
    limits (-20.0 45.0)
           (-30.0 30.0)
           (-30.0 30.0)
  end
  begin
     id 13 
     name thorax
     direction 0.000590299 0.996288 0.0860764   
     length 2.19049   
     axis 0 0 0   XYZ
    dof rx ry rz
    limits (-20.0 45.0)
           (-30.0 30.0)
           (-30.0 30.0)
  end
  begin
     id 14 
     name lowerneck
     direction -0.0432125 0.978219 0.203028   
     length 1.62441   
     axis 0 0 0   XYZ
    dof rx ry rz
    limits (-20.0 45.0)
           (-30.0 30.0)
           (-30.0 30.0)
  end
  begin
     id 15 
     name upperneck
     direction -0.0192309 0.991699 -0.127138   
     length 1.66666   
     axis 0 0 0   XYZ
    dof rx ry rz
    limits (-20.0 45.0)
           (-30.0 30.0)
           (-30.0 30.0)
  end
  begin
     id 16
     name head
     direction -0.00434499 0.997882 -0.0649107  
     length 1.67142  
     axis 0 0 0   XYZ
    dof rx ry rz
    limits (-20.0 45.0)
           (-30.0 30.0)
           (-30.0 30.0)
  end
  begin
     id 17 
     name lclavicle
     direction 0.970351 0.240904 -0.0196058  
     length 4.04862  
     axis 0 0 0   XYZ
    dof ry rz
    limits (-20.0 10.0)
           (0.0 20.0)
  end
  begin
     id 18 
     name lhumerus
     direction 1 -4.4896e-011 -1.40911e-018   
     length 5.58345   
     axis 180 -30 -90   XYZ
    dof rx ry rz
    limits (-60.0 90.0)
           (-90.0 90.0)
           (-90.0 90.0)
  end
  begin
     id 19
     name lradius
     direction 1 -4.48968e-011 5.88912e-028   
     length 3.71087   
     axis 180 -30 -90   XYZ
    dof rx
    limits (-10.0 170.0)
  end
  begin
     id 20
     name lwrist
     direction 1 -4.48955e-011 -8.83775e-028   
     length 1.85544   
     axis 5.52448e-016 90 90   XYZ
    dof ry
    limits (-180.0 0.0)
 end
  begin
     id 21 
     name lhand
     direction 1 -4.49035e-011 -1.76755e-027   
     length 0.562322   
     axis 1.12785e-015 90 90   XYZ
    dof rx rz
    limits (-90.0 90.0)
           (-45.0 45.0)
  end
  begin
     id 22 
     name lfingers
     direction 1 -4.48824e-011 -3.5351e-027   
     length 0.453359   
     axis 2.2557e-015 90 90   XYZ
    dof rx
    limits (0.0 90.0)
  end
  begin
     id 23
     name lthumb
     direction 0.707107 -6.34888e-011 0.707107   
     length 0.650935   
     axis -90 45 2.85299e-015   XYZ
    dof rx rz
    limits (-45.0 45.0)
           (-45.0 45.0)
  end
  begin
     id 24 
     name rclavicle
     direction -0.96165 0.268562 -0.0557131   
     length 4.05446  
     axis 0 0 0   XYZ 
    dof ry rz
    limits (-10.0 20.0)
           (-20.0 0.0)
  end
  begin
     id 25 
     name rhumerus
     direction -1 -4.48957e-011 -3.36329e-027  
     length 5.20357   
     axis 180 30 90   XYZ
    dof rx ry rz
    limits (-90.0 60.0)
           (-90.0 90.0)
           (-90.0 90.0)
  end
  begin
     id 26 
     name rradius
     direction -1 -4.48974e-011 4.51441e-027   
     length 3.64937   
     axis 180 30 90   XYZ
    dof rx
    limits (-10.0 170.0)
  end
  begin
     id 27 
     name rwrist
     direction -1 -4.4896e-011 -8.83775e-028   
     length 1.82468   
     axis 5.52448e-016 -90 -90   XYZ
    dof ry
    limits (-180.0 0.0)
  end
  begin
     id 28
     name rhand
     direction -1 -4.48996e-011 -1.76755e-027   
     length 0.617996   
     axis 1.12785e-015 -90 -90   XYZ
    dof rx rz
    limits (-90.0 90.0)
           (-45.0 45.0)
  end
  begin
     id 29
     name rfingers
     direction -1 -4.48957e-011 -3.5351e-027   
     length 0.498244   
     axis 2.2557e-015 -90 -90   XYZ
    dof rx
    limits (0.0 90.0)
  end
  begin
     id 30
     name rthumb
     direction -0.707107 -6.34931e-011 0.707107   
     length 0.715382   
     axis -90 -45 -2.85299e-015   XYZ
    dof rx rz
    limits (-45.0 45.0)
           (-45.0 45.0)
  end
:hierarchy
  begin
    root lhipjoint rhipjoint lowerback
    lhipjoint lfemur
    lfemur ltibia
    ltibia lfoot
    lfoot ltoes
    rhipjoint rfemur
    rfemur rtibia
    rtibia rfoot
    rfoot rtoes
    lowerback upperback
    upperback thorax
    thorax lowerneck lclavicle rclavicle
    lowerneck upperneck
    upperneck head
    lclavicle lhumerus
    lhumerus lradius
    lradius lwrist
    lwrist lhand lthumb
    lhand lfingers
    rclavicle rhumerus
    rhumerus rradius
    rradius rwrist
    rwrist rhand rthumb
    rhand rfingers
  end

#!OML:ASF H:\ManfredETheater\Project 1\Capture day 2\Session 1\Male1.ASF
:FULLY-SPECIFIED
:DEGREES
33
root -0.23318 16.7542 2.35456 -15.4306 2.92598 -8.75013
lowerback 9.84824 1.90663 8.17242
upperback -0.196191 3.79118 5.09077
thorax -5.57656 1.71275 0.227077
lowerneck -20.191 -2.9805 -3.65503
upperneck 21.2162 -2.51008 -1.90619
head 10.1403 -1.68955 -0.434976
rclavicle -2.9122e-014 2.18663e-014
rhumerus -25.257 11.0256 -74.0831
rradius 71.659
rwrist -3.15087
rhand -31.5787 4.92118
rfingers 7.12502
rthumb -4.84191 -25.0035
lclavicle -2.9122e-014 2.18663e-014
lhumerus -60.4299 -4.95277 83.1135
lradius 79.3583
lwrist 3.33223
lhand -23.4156 -11.4001
lfingers 7.12502
lthumb 3.04179 18.558
rfemur -6.38492 -7.63355 30.2203
rtibia 59.4004
rfoot -21.6696 -5.40763
rtoes -7.35358
lfemur -26.6 -0.0193619 -14.8778
ltibia 31.4258
lfoot 14.5375 -5.57231
ltoes -11.4976
34
root -0.215745 16.7469 2.70459 -15.2783 2.17759 -8.96152
lowerback 9.36204 1.98321 8.31382
upperback -0.439195 3.88143 5.26998
thorax -5.56032 1.75247 0.34247
lowerneck -20.1419 -2.84792 -3.5063
upperneck 21.5306 -2.33583 -2.03824
head 10.2393 -1.61721 -0.483826
rclavicle 1.28216e-014 -1.35174e-014
rhumerus -24.8767 11.2641 -74.4281
rradius 72.7187
rwrist -3.07593
rhand -31.4364 4.90002
rfingers 7.12502
rthumb -4.70455 -25.0277
lclavicle 1.28216e-014 -1.35174e-014
lhumerus -61.6403 -4.3114 82.5804
lradius 78.6051
lwrist 2.40036
lhand -23.3133 -11.4839
lfingers 7.12502
lthumb 3.14053 18.4728
rfemur -5.70006 -7.65356 30.1739
rtibia 60.2424
rfoot -21.3779 -4.46737
rtoes -8.53127
lfemur -25.455 0.494719 -14.6438
ltibia 31.7388
lfoot 13.7079 -9.0494
ltoes -1.26869
35
root -0.202425 16.7277 3.04434 -15.2247 1.52972 -9.31873
lowerback 9.11494 2.00778 8.57819
upperback -0.682786 3.94774 5.48131
thorax -5.67668 1.77243 0.41876
lowerneck -20.1923 -2.7357 -3.29689
upperneck 21.8522 -2.17515 -2.28005
head 10.3584 -1.56007 -0.585549
rclavicle -1.8487e-014 -2.38542e-014
rhumerus -24.5874 11.3328 -74.748
rradius 73.7841
rwrist -2.8567
rhand -31.4276 4.74071
rfingers 7.12502
rthumb -4.69605 -25.1872
lclavicle -1.8487e-014 -2.38542e-014
lhumerus -62.8331 -3.78967 82.0784
lradius 78.011
lwrist 1.38737
lhand -23.0956 -11.5444
lfingers 7.12502
lthumb 3.35077 18.409
rfemur -5.05348 -7.83008 30.2108
rtibia 61.1599
rfoot -21.0632 -3.70797
rtoes -9.8764
lfemur -24.4123 0.727188 -14.2049
ltibia 32.5419
lfoot 6.02573 -8.02148
ltoes -16.6778
36
root -0.185542 16.7187 3.37099 -15.1626 1.06277 -9.53099
lowerback 9.01341 1.94404 8.74699
upperback -0.986154 3.90704 5.61781
thorax -5.94596 1.73458 0.47667
lowerneck -20.1308 -2.56728 -3.1596
upperneck 22.1215 -1.95712 -2.3713
head 10.4412 -1.46307 -0.611108
rclavicle 4.67144e-014 6.67916e-014
rhumerus -24.435 11.4449 -75.1549
rradius 74.8162
rwrist -2.54423
rhand -31.4301 4.40723
rfingers 7.12502
rthumb -4.69849 -25.5207
lclavicle 4.67144e-014 6.67916e-014
lhumerus -63.9927 -3.21001 81.5107
lradius 77.4165
lwrist 0.383592
lhand -22.8091 -11.3379
lfingers 7.12502
lthumb 3.62748 18.611
rfemur -4.5669 -8.15793 29.9673
rtibia 62.0813
rfoot -20.7128 -2.9426
rtoes -10.5054
lfemur -23.7751 1.16758 -14.1849
ltibia 33.7976
lfoot 8.27645 -9.06875
ltoes 0.289721
37
root -0.161219 16.743 3.67744 -15.0459 0.778747 -9.59233
lowerback 9.05991 1.8196 8.86286
upperback -1.34063 3.79991 5.65927
thorax -6.35522 1.65767 0.467086
lowerneck -19.9895 -2.37327 -2.87855
upperneck 22.2769 -1.72005 -2.5948
head 10.4651 -1.35967 -0.702211
rclavicle -5.56597e-015 -6.83819e-014
rhumerus -24.4464 11.4048 -75.6567
rradius 75.8713
rwrist -2.11849
rhand -31.4313 4.22231
rfingers 7.12502
rthumb -4.69964 -25.7056
lclavicle -5.56597e-015 -6.83819e-014
lhumerus -65.0663 -2.64925 80.947
lradius 76.8297
lwrist -0.497575
lhand -22.6325 -10.9774
lfingers 7.12502
lthumb 3.79799 18.9685
rfemur -4.30281 -8.6273 29.4382
rtibia 62.9006
rfoot -20.4226 -2.30686
rtoes -10.5181
lfemur -23.7563 1.40551 -14.4107
ltibia 35.36
lfoot 6.96414 -8.66249
ltoes 4.05518
38
root -0.142278 16.75 3.96304 -14.9626 0.565727 -9.50425
lowerback 9.46596 1.70505 8.85162
upperback -1.76063 3.74143 5.60029
thorax -7.04116 1.59548 0.403086
lowerneck -19.7455 -2.17827 -2.38562
upperneck 22.4173 -1.49565 -3.03345
head 10.4612 -1.26949 -0.905829
rclavicle 5.56597e-015 9.54166e-015
rhumerus -24.6308 11.1303 -76.2913
rradius 76.8307
rwrist -1.57264
rhand -31.5753 4.06082
rfingers 7.12502
rthumb -4.83867 -25.8639
lclavicle 5.56597e-015 9.54166e-015
lhumerus -65.9866 -2.22963 80.3815
lradius 76.1336
lwrist -1.22414
lhand -22.433 -10.803
lfingers 7.12502
lthumb 3.99062 19.1394
rfemur -4.37781 -8.96891 28.845
rtibia 63.8563
rfoot -20.543 -2.07466
rtoes -10.6142
lfemur -23.6834 1.04369 -14.6175
ltibia 36.9324
lfoot 5.72619 -7.41383
ltoes 4.43696
39
root -0.145802 16.7534 4.22469 -14.867 0.929475 -8.56474
lowerback 9.99 1.53989 7.6396
upperback -2.16552 3.45868 5.3134
thorax -7.83876 1.47104 0.790551
lowerneck -19.6338 -2.00992 -2.15535
upperneck 22.7673 -1.3072 -3.10986
head 10.5656 -1.1764 -0.94733
rclavicle -1.37161e-014 -1.74931e-014
rhumerus -24.8301 10.6897 -77.046
rradius 77.6655
rwrist -0.938055
rhand -31.8246 4.02583
rfingers 7.12502
rthumb -5.07938 -25.8933
lclavicle -1.37161e-014 -1.74931e-014
lhumerus -66.532 -1.74172 79.8118
lradius 75.1734
lwrist -1.74461
lhand -22.4046 -10.5817
lfingers 7.12502
lthumb 4.01807 19.3601
rfemur -4.82704 -9.36523 27.4099
rtibia 64.8773
rfoot -21.1195 -2.0658
rtoes -10.5145
lfemur -23.6519 0.112613 -15.7074
ltibia 38.4034
lfoot 4.59504 -6.37995
ltoes 4.20909
40
root -0.174632 16.7627 4.46744 -14.1491 1.97047 -5.94871
lowerback 9.97625 1.44784 4.34266
upperback -2.6143 2.88333 4.55069
thorax -8.43405 1.31521 1.90519
lowerneck -19.9661 -1.85059 -2.00122
upperneck 23.3165 -1.15369 -2.93329
head 10.8307 -1.07884 -0.899098
rclavicle 3.77691e-014 3.49861e-014
rhumerus -24.9155 10.0501 -77.936
rradius 78.3182
rwrist -0.221615
rhand -32.1787 3.9881
rfingers 7.12502
rthumb -5.42125 -25.9226
lclavicle 3.77691e-014 3.49861e-014
lhumerus -66.4727 -1.14391 79.1227
lradius 73.7945
lwrist -1.97808
lhand -22.6552 -10.6369
lfingers 7.12502
lthumb 3.7761 19.3094
rfemur -6.29128 -9.73673 24.2644
rtibia 65.9906
rfoot -21.9318 -2.31008
rtoes -10.2761
lfemur -24.2543 -0.736655 -18.6579
ltibia 39.6867
lfoot 3.61523 -5.9508
ltoes 4.04168
41
root -0.197232 16.7735 4.70286 -13.4778 2.67747 -4.36695
lowerback 9.79141 1.32346 2.40983
upperback -2.77 2.41588 3.99871
thorax -8.53776 1.17095 2.48412
lowerneck -21.206 -1.77145 -2.0488
upperneck 24.1577 -1.10476 -2.42622
head 11.3861 -1.01069 -0.725511
rclavicle 1.94809e-014 3.65764e-014
rhumerus -24.7953 9.05758 -78.7717
rradius 78.8739
rwrist 0.472068
rhand -32.5107 4.03086
rfingers 7.12502
rthumb -5.7418 -25.8713
lclavicle 1.94809e-014 3.65764e-014
lhumerus -65.5528 -0.529094 78.4766
lradius 72.0096
lwrist -1.91943
lhand -22.9893 -10.7329
lfingers 7.12502
lthumb 3.45345 19.2189
rfemur -7.76089 -9.9095 22.4363
rtibia 66.7118
rfoot -22.7578 -2.89069
rtoes -10.1456
lfemur -24.7812 -0.977645 -20.382
ltibia 40.8453
lfoot 2.60358 -6.29075
ltoes 3.30452
42
root -0.201665 16.7959 4.93399 -13.0859 2.58474 -4.22073
lowerback 9.74282 1.25181 2.33674
upperback -2.83273 2.29805 3.84425
thorax -8.569 1.1124 2.38133
lowerneck -21.984 -1.74594 -2.10141
upperneck 24.4977 -1.1201 -2.06959
head 11.668 -0.981663 -0.600413
rclavicle 1.25234e-014 2.14687e-014
rhumerus -25.0172 7.77097 -79.6336
rradius 79.3063
rwrist 1.2248
rhand -32.8538 4.10535
rfingers 7.12502
rthumb -6.07308 -25.7876
lclavicle 1.25234e-014 2.14687e-014
lhumerus -64.338 0.131291 77.8757
lradius 69.8347
lwrist -1.83312
lhand -23.7424 -10.8148
lfingers 7.12502
lthumb 2.72617 19.1475
rfemur -8.94651 -9.51137 22.404
rtibia 66.8542
rfoot -23.2323 -3.65726
rtoes -9.24106
lfemur -24.9938 -0.604005 -20.3931
ltibia 41.9635
lfoot 1.5904 -6.67538
ltoes 3.09792
43
root -0.185965 16.8315 5.16661 -12.9786 1.70473 -4.76088
lowerback 9.7932 1.39963 3.41888
upperback -2.75289 2.63505 3.85311
thorax -8.47515 1.21941 1.72405
lowerneck -22.5211 -1.8122 -2.21372
upperneck 24.543 -1.2466 -1.75671
head 11.7919 -1.00923 -0.492416
rclavicle 5.86415e-015 -9.14409e-015
rhumerus -25.4612 6.09416 -80.3539
rradius 79.5639
rwrist 2.08233
rhand -33.1073 4.04385
rfingers 7.12502
rthumb -6.31778 -25.8419
lclavicle 5.86415e-015 -9.14409e-015
lhumerus -62.8638 0.63611 77.3452
lradius 67.4147
lwrist -1.99813
lhand -23.8077 -10.8057
lfingers 7.12502
lthumb 2.66305 19.1574
rfemur -9.70247 -8.59946 23.2167
rtibia 66.3633
rfoot -23.5959 -4.58604
rtoes -8.94363
lfemur -24.8274 0.350284 -19.5657
ltibia 43.0923
lfoot 0.530141 -6.82531
ltoes 2.97464
44
root -0.171357 16.8718 5.39239 -12.9407 0.978601 -5.51931
lowerback 9.95028 1.50218 4.70753
upperback -2.70271 2.9538 3.92536
thorax -8.4596 1.30878 1.02284
lowerneck -22.7419 -1.89634 -2.32343
upperneck 24.3661 -1.36808 -1.59703
head 11.7686 -1.05176 -0.435334
rclavicle 2.59414e-014 2.18663e-014
rhumerus -26.1527 4.38909 -81.0017
rradius 79.6565
rwrist 2.46086
rhand -33.5773 3.79845
rfingers 7.12502
rthumb -6.77157 -26.0733
lclavicle 2.59414e-014 2.18663e-014
lhumerus -61.3438 1.29048 76.8072
lradius 64.7926
lwrist -2.82318
lhand -23.8287 -10.5129
lfingers 7.12502
lthumb 2.64277 19.4504
rfemur -10.2991 -7.78986 24.2984
rtibia 65.3858
rfoot -23.9421 -5.72327
rtoes -9.1363
lfemur -24.4925 1.02401 -18.5022
ltibia 44.0857
lfoot -0.490375 -6.86932
ltoes 3.17982
